<?xml version="1.0" standalone="no"?><!DOCTYPE svg PUBLIC "-//W3C//DTD SVG 1.1//EN" "http://www.w3.org/Graphics/SVG/1.1/DTD/svg11.dtd"><svg width="100%" height="100%" viewBox="0 0 250 150" version="1.1" xmlns="http://www.w3.org/2000/svg" xmlns:xlink="http://www.w3.org/1999/xlink" xml:space="preserve" style="fill-rule:evenodd;clip-rule:evenodd;stroke-linecap:round;stroke-linejoin:bevel;stroke-miterlimit:10;"><g id="Logo"><g id="Hair"><path d="M124.948,38.1641c0,0 9.62869,0.666515 31.1764,-13.4966c4.97501,-2.94713 19.1634,-11.2465 29.4832,-10.9714c0,0 8.78473,-0.747034 12.7115,9.22833c3.9305,9.97536 -8.31131,24.7871 -30.5292,7.40697" style="fill:none;stroke-width:1.33px;stroke:#755226;"/><path d="M143.316,70.9901c-7.50389,-11.0489 -23.7918,0.598671 -23.7918,0.598671c0,0 -14.6738,10.9438 -18.8391,-9.32003" style="fill:none;stroke-width:1.33px;stroke:#a47931;"/><path d="M143.533,57.3563c-4.05203,12.4275 -22.871,6.54214 -22.871,6.54214c0,0 -17.0849,-5.71608 -15.353,14.2108" style="fill:none;stroke-width:1.33px;stroke:#a47931;"/><path d="M116.012,40.6285c9.30065,-2.10616 22.7085,-9.53848 26.1663,-10.9103c3.45335,-1.36956 16.2312,-3.38104 18.1771,9.46094" style="fill:none;stroke-width:1.33px;stroke:#d0a82b;"/><path d="M166.644,76.1187c0,0 -30.4934,23.7016 -59.6844,-13.8216" style="fill:none;stroke-width:1.33px;stroke:#a47931;"/><path d="M231.349,68.5282c0,0 -8.04441,-8.12716 -23.454,-7.44872c-2.68694,-0.0380227 -6.48175,1.49929 -10.8983,0.0477147" style="fill:none;stroke-width:1.33px;stroke:#503312;"/><path d="M208.037,80.0539c0,0 -8.04664,-8.12716 -23.4548,-7.45021c-2.68768,-0.0380227 -6.4825,1.49929 -10.8983,0.0484603" style="fill:none;stroke-width:1.33px;stroke:#503312;"/><path d="M210.809,58.0513c0,0 -9.58619,-1.12353 -31.7832,12.0047c-5.10771,2.7093 -19.6749,10.328 -29.9686,9.56308c-3.80376,-0.490567 -20.0178,1.60963 -33.1364,-19.0658" style="fill:none;stroke-width:1.33px;stroke:#755226;"/><path d="M170.743,110.962c0,0 -8.04739,-8.12642 -23.454,-7.44946c-2.68694,-0.0395138 -6.4825,1.49854 -10.8998,0.0492058" style="fill:none;stroke-width:1.33px;stroke:#503312;"/><path d="M194.011,81.9916c0,0 -0.670989,3.01423 -8.40003,2.16357c-3.64198,-0.823079 -6.83663,-2.43867 -10.17,-5.33287c-3.33481,-2.89643 -6.95592,-9.27232 -8.03695,-10.6426c-1.07955,-1.36882 -5.8965,-4.90567 -10.1722,1.14366" style="fill:none;stroke-width:1.33px;stroke:#d0a82b;"/><path d="M91.6001,61.74c3.23715,-3.00454 9.96269,-5.92259 11.4426,-6.8493c1.47617,-0.928201 5.50733,-5.33883 -0.0484603,-10.2378" style="fill:none;stroke-width:1.33px;stroke:#d0a82b;"/><path d="M214.187,92.5323c0,0 -0.668752,3.01423 -8.39854,2.16506c-3.64123,-0.823079 -6.83737,-2.44016 -10.17,-5.33287c-3.33556,-2.89643 -6.95442,-9.27157 -8.03695,-10.6419c-1.08029,-1.37031 -5.89724,-4.90567 -10.1722,1.14292" style="fill:none;stroke-width:1.33px;stroke:#d0a82b;"/><path d="M148.678,74.06c0,0 9.62869,0.668006 31.1771,-13.4966c4.97501,-2.94788 19.1627,-11.2465 29.4825,-10.9707c3.82314,0.308655 19.9187,-2.55721 34.0057,17.4755" style="fill:none;stroke-width:1.33px;stroke:#755226;"/><path d="M186.952,85.0794c0,0 -7.91319,-1.20703 -23.0939,10.6135c-3.55326,2.43122 -13.7143,9.26188 -22.1232,8.37617c-3.14992,-0.518152 -15.7362,1.15783 -30.3935,-18.2688" style="fill:none;stroke-width:1.33px;stroke:#755226;"/><path d="M200.033,75.3949c0,0 -9.58619,-1.12428 -31.7817,12.004c-5.10846,2.71079 -19.6749,10.3288 -29.9686,9.56308c-3.80525,-0.489822 -20.0186,1.61112 -33.1386,-19.065" style="fill:none;stroke-width:1.33px;stroke:#755226;"/><path d="M183.483,59.7516c0,0 -9.5847,-1.12279 -31.7825,12.0047c-5.10697,2.71005 -19.6741,10.3273 -29.9671,9.56159c-3.80525,-0.489076 -20.0186,1.61112 -33.1401,-19.0635" style="fill:none;stroke-width:1.33px;stroke:#755226;"/><path d="M119.653,40.6548c-4.05203,12.4282 -22.8725,6.54288 -22.8725,6.54288c0,0 -17.0811,-5.71682 -15.3507,14.2108" style="fill:none;stroke-width:1.33px;stroke:#a47931;"/><path d="M112.708,55.1674c0,0 9.6272,0.667261 31.1749,-13.4973c4.97575,-2.94788 19.1649,-11.2473 29.4825,-10.9699c0,0 8.78548,-0.747034 12.7137,9.22758c3.92901,9.97611 -8.31355,24.7878 -30.5315,7.40622" style="fill:none;stroke-width:1.33px;stroke:#755226;"/><path d="M68.8756,62.1193c0,0 9.63018,0.668006 31.1779,-13.4958c4.97426,-2.94788 19.1619,-11.2473 29.4817,-10.9707c0,0 8.78473,-0.747034 12.7123,9.22833c3.9305,9.97462 -8.31206,24.7863 -30.53,7.40548" style="fill:none;stroke-width:1.33px;stroke:#755226;"/><path d="M122.832,69.3735c0,0 9.62943,0.668752 31.1771,-13.4966c4.97575,-2.94639 19.1649,-11.2465 29.484,-10.9707c0,0 8.78175,-0.746288 12.7123,9.22908c3.92976,9.97462 -8.31355,24.7878 -30.5307,7.40548" style="fill:none;stroke-width:1.33px;stroke:#755226;"/><path d="M214.017,95.3157c15.9248,-1.85118 13.4541,-13.2535 5.6363,-16.4131c-7.82074,-3.15663 -10.5092,12.2545 -28.8137,5.09728" style="fill:none;stroke-width:1.33px;stroke:#d0a82b;"/><path d="M192.508,99.8522c0,0 -8.04739,-8.12716 -23.4548,-7.44946c-2.68694,-0.0380227 -6.48175,1.50078 -10.8998,0.0492058" style="fill:none;stroke-width:1.33px;stroke:#503312;"/><path d="M152.404,86.9137c-4.40467,0.308655 -11.4739,-1.64243 -13.2073,-1.8482c-1.73264,-0.206515 -7.63883,0.699319 -6.38707,8.00042" style="fill:none;stroke-width:1.33px;stroke:#d0a82b;"/><path d="M138.612,47.4655c-4.40541,0.3094 -11.4732,-1.64094 -13.208,-1.84671c-1.73115,-0.205024 -7.63809,0.698574 -6.38632,7.99968" style="fill:none;stroke-width:1.33px;stroke:#d0a82b;"/><path d="M221.979,44.1939c0,0 -8.0459,-8.12493 -23.4555,-7.44872c-2.68619,-0.0380227 -6.48026,1.50003 -10.8976,0.0492058" style="fill:none;stroke-width:1.33px;stroke:#503312;"/><path d="M130.238,74.8911c0,0 9.62943,0.668006 31.1786,-13.4966c4.97426,-2.94788 19.1619,-11.2465 29.481,-10.9699c3.82389,0.307909 19.9202,-2.55796 34.005,17.4748" style="fill:none;stroke-width:1.33px;stroke:#755226;"/><path d="M187.066,85.4193c0,0 -7.91319,-1.20629 -23.0932,10.6143c-3.554,2.42972 -13.7158,9.26113 -22.1247,8.37692c-3.14992,-0.519643 -15.7354,1.15634 -30.3928,-18.2718" style="fill:none;stroke-width:1.33px;stroke:#755226;"/><path d="M184.277,60.0924c0,0 -9.58544,-1.12279 -31.7825,12.0032c-5.10697,2.71079 -19.6741,10.3288 -29.9678,9.56308c-3.80451,-0.489076 -20.0178,1.61112 -33.1379,-19.065" style="fill:none;stroke-width:1.33px;stroke:#755226;"/><path d="M229.044,80.9967c0,0 -8.04664,-8.12642 -23.4548,-7.44872c-2.68694,-0.0387682 -6.48175,1.49929 -10.8983,0.0484603" style="fill:none;stroke-width:1.33px;stroke:#503312;"/><path d="M141.273,57.6221c0,0 9.62794,0.668752 31.1764,-13.4958c4.97501,-2.94639 19.1627,-11.2473 29.4825,-10.9699c0,0 8.78175,-0.74778 12.7123,9.22758c3.92976,9.97462 -8.31355,24.7871 -30.53,7.40548" style="fill:none;stroke-width:1.33px;stroke:#755226;"/><path d="M143.543,70.9901c-7.50389,-11.0489 -23.7925,0.598671 -23.7925,0.598671c0,0 -14.6738,10.9438 -18.8391,-9.32003" style="fill:none;stroke-width:1.33px;stroke:#a47931;"/><path d="M182.318,91.7761c-10.8134,-11.3479 -33.0313,-0.2341 -33.0313,-0.2341c0,0 -19.9999,10.4637 -26.4981,-10.0119" style="fill:none;stroke-width:1.33px;stroke:#a47931;"/><path d="M207.961,80.356c0,0 -8.04664,-8.12642 -23.4548,-7.44946c-2.68694,-0.0387682 -6.48175,1.49929 -10.8998,0.0484603" style="fill:none;stroke-width:1.33px;stroke:#503312;"/><path d="M69.4435,62.1193c0,0 9.62869,0.667261 31.1756,-13.4958c4.97575,-2.94788 19.1642,-11.2473 29.484,-10.9707c0,0 8.7825,-0.747034 12.7115,9.22833c3.9305,9.97462 -8.31206,24.7863 -30.5292,7.40548" style="fill:none;stroke-width:1.33px;stroke:#755226;"/><path d="M140.931,57.0563c0,0 9.62869,0.667261 31.1779,-13.4966c4.97426,-2.94788 19.1619,-11.2465 29.4825,-10.9707c0,0 8.78399,-0.74778 12.7123,9.22758c3.92976,9.97462 -8.31131,24.7871 -30.53,7.40697" style="fill:none;stroke-width:1.33px;stroke:#755226;"/><path d="M112.253,54.8273c0,0 9.62794,0.668006 31.1756,-13.4966c4.97575,-2.94713 19.1649,-11.2465 29.4832,-10.9707c0,0 8.78399,-0.747034 12.7137,9.22833c3.9305,9.97462 -8.31355,24.7863 -30.5307,7.40473" style="fill:none;stroke-width:1.33px;stroke:#755226;"/><path d="M123.286,69.2606c0,0 9.62869,0.668006 31.1756,-13.4966c4.9765,-2.94788 19.1642,-11.2473 29.4832,-10.9699c0,0 8.78399,-0.747034 12.713,9.22758c3.9305,9.97462 -8.3128,24.7878 -30.5307,7.40548" style="fill:none;stroke-width:1.33px;stroke:#755226;"/><path d="M230.053,29.4432c-12.5341,-5.06075 -16.8411,19.6391 -46.1782,8.16891" style="fill:none;stroke-width:1.33px;stroke:#d0a82b;"/></g><path d="M44.7616,75.2442l-32.6458,0c0,0 -5.45886,0.0984117 -5.45886,6.94622l0,1.73264l3.48914,0.00596434l-0.0134198,22.5161l-3.47572,-0.00670989c0,0 3.36252,2.05566 3.46379,5.19643c0.946094,0 8.65426,-0.00447326 8.65426,-0.00447326c0,0 -0.653841,5.21507 4.70512,5.21507c0,0 3.96629,-0.0208752 3.96629,-5.21507c1.56937,0 3.75306,0.0149109 3.75306,0.0149109c0,0 -1.1459,5.18525 4.43822,5.20016c0.83799,0 4.55378,-0.0999027 3.9387,-5.21507c1.25251,0 26.3467,0.070081 26.8142,0.0559157c-0.211083,2.7287 0.867066,5.17183 4.86094,5.11666c2.13449,-0.0454781 4.03377,-1.27441 3.9484,-5.15916c0.839481,0 2.87258,0.0208752 2.87258,0.0208752c0,0 -0.605051,5.1942 3.92752,5.1942c1.19138,-5.68434e-14 4.6051,0.138146 4.33459,-5.24191c0.920745,0 6.3058,0.0134198 6.90074,-5.94014e-12c0.151345,-2.94862 3.38583,-5.17835 3.48765,-5.17854l-3.46081,-0.00894651l-0.00447326,-22.505l3.47647,-0.00969206c0,0 0.766418,-8.58642 -6.95666,-8.65724c-2.70632,0 -29.4288,-0.0134198 -29.4288,-0.0134198c0,0 -0.0514425,-1.63423 -1.72891,-1.71475l-3.47199,0l8.82657,-8.83984l0.999168,-0.0152875l-0.0186289,-3.03769c0,0 -2.95723,0.0525904 -3.90631,0.0525904l-0.00504922,2.9218l-9.35284,8.91843c0,0 -3.36788,0.0564257 -5.17792,0.0516378c-1.81004,-0.00478787 -1.75116,1.66311 -1.75116,1.66311Z" style="fill:#e2404b;fill-rule:nonzero;stroke-width:0.67px;stroke-linecap:butt;stroke-linejoin:miter;stroke:#e2404b;"/><g id="Windows"><rect x="11.847" y="85.644" width="3.45783" height="10.4003" style="fill:#e2404b;fill-rule:nonzero;"/><rect x="17.0464" y="85.644" width="8.65799" height="10.4003" style="fill:#ba4048;fill-rule:nonzero;"/><rect x="29.1756" y="85.644" width="8.65799" height="10.4003" style="fill:#ba4048;fill-rule:nonzero;"/><rect x="43.0345" y="83.924" width="6.91416" height="22.5206" style="fill:#ba4048;fill-rule:nonzero;"/><rect x="53.4244" y="83.924" width="6.91491" height="22.5571" style="fill:#ba4048;fill-rule:nonzero;"/><rect x="67.29" y="85.6626" width="8.65203" height="10.3906" style="fill:#ba4048;fill-rule:nonzero;"/><rect x="79.3827" y="85.6626" width="8.72882" height="10.3906" style="fill:#ba4048;fill-rule:nonzero;"/><rect x="89.7734" y="85.6626" width="1.70133" height="10.3906" style="fill:#e2404b;fill-rule:nonzero;"/></g><path d="M9.31557,118.084c0.73436,-1.90039 3.2707,-1.44337 3.2707,-1.44337l86.9474,-0.0559157c0,0 10.5845,-4.12583 15.1174,-16.5391c0.275105,-0.498768 3.66434,-3.62334 3.43621,1.80943l-0.992318,12.5169c0,0 2.20532,1.46648 2.82263,0.369789c0.0626256,-0.580032 0.778347,-14.345 0.778347,-14.345c0,0 2.6176,-2.07559 2.94937,0.49504c-0.123015,2.5848 -0.66577,14.4561 -0.66577,14.4561c0,0 1.47916,1.00648 1.87429,-0.281815c0.0984117,-0.910308 0.604635,-14.3532 0.604635,-14.3532c0,0 2.36412,-0.811151 2.66457,0.213971c-0.0372771,1.41429 -0.703047,14.2965 -0.703047,14.2965c0,0 1.62752,1.22045 2.08305,-0.0976661c0.131216,-1.24133 0.826807,-13.6166 0.826807,-13.6166c0,0 1.32856,-2.08454 2.35741,-0.275105c0.0350405,1.89815 -0.698574,14.1534 -0.698574,14.1534c0,0 1.30843,1.16976 2.28211,0.553938c0.0618801,-0.827553 0.876013,-14.7483 0.876013,-14.7483c0,0 1.6469,-1.17498 2.11958,-0.0216207c-0.113323,1.4553 -0.699319,15.0234 -0.699319,15.0234c0,0 1.91754,0.903598 2.42152,-0.0454781c0.128979,-0.910308 0.382463,-14.6581 0.382463,-14.6581c0,0 2.36934,-0.930438 2.56243,0.188622c-0.0357861,1.40908 -0.634457,14.3815 -0.634457,14.3815c0,0 2.14567,1.30545 2.60418,0.152836c0.1506,-1.06911 0.796985,-14.6395 0.796985,-14.6395c0,0 1.99135,-0.861848 2.2918,0.365316c0.0529335,1.2719 -0.714976,14.4926 -0.714976,14.4926c0,0 1.30992,1.52762 1.98314,0.465219c0.112577,-0.953549 0.893906,-15.1263 0.893906,-15.1263c0,0 1.71848,-0.85141 2.22172,0.211734c0.0499514,1.14143 -0.39812,15.0726 -0.39812,15.0726c0,0 1.84969,1.32558 2.39245,-0.234846c0.0827553,-1.39193 0.779838,-14.2622 0.779838,-14.2622c0,0 1.98985,-2.05173 2.32684,0.404084c-0.0663533,1.93916 -0.594943,13.5145 -0.594943,13.5145c0,0 2.10169,1.76694 2.25527,0.326548c0.15731,-1.42995 0.692609,-14.0378 0.692609,-14.0378c0,0 1.78707,-1.45381 2.08528,-0.0984117c-0.0193841,1.36956 -0.299708,14.5098 -0.299708,14.5098c0,0 1.67971,1.61261 2.27614,-0.125997c0.0790275,-1.58801 0.520389,-14.3875 0.520389,-14.3875c0,0 1.83851,-0.984117 2.07559,0.0909562c0.0984117,1.1034 -0.373517,14.471 -0.373517,14.471c0,0 1.79154,1.93021 2.35219,0.708266c0.167747,-1.13919 0.963241,-15.0108 0.963241,-15.0108c0,0 1.30097,-0.996791 1.74904,0.0946839c0.0611345,1.21374 -0.337731,15.0958 -0.337731,15.0958c0,0 1.49183,1.19734 2.20084,-0.205024c0.147617,-1.41728 1.02363,-14.6298 1.02363,-14.6298c0,0 1.26966,-1.33079 1.61932,0.147617c0,1.48512 -0.375008,14.506 -0.375008,14.506c0,0 0.840972,1.51122 2.43718,0.486094c-0.0380227,-0.822334 0.781329,-15.1323 0.781329,-15.1323c0,0 1.45306,-0.9953 1.6976,0.334749c0.139417,1.421 -0.506969,14.4725 -0.506969,14.4725c0,0 2.08379,1.53731 2.7093,0.533063c0.294489,-0.780583 1.19511,-15.0398 1.19511,-15.0398c0,0 1.51047,-0.996791 1.72593,0.264668c-0.0238574,1.42995 -0.547974,15.0294 -0.547974,15.0294c0,0 2.00626,1.42175 2.35368,-0.237083c0.15731,-1.18541 1.15932,-14.2451 1.15932,-14.2451c0,0 1.17647,-1.43592 1.47767,-0.0492058c0.193096,1.42399 -0.228882,14.5895 -0.228882,14.5895c0,0 1.51271,1.61783 2.75925,0.0462237c0.0275851,-1.04972 1.00723,-14.2518 1.00723,-14.2518c0,0 1.37254,-1.33005 1.66554,-0.0410049c-0.00820097,1.41355 -0.372026,14.471 -0.372026,14.471c0,0 1.66182,1.42026 2.33951,0.101394c0.096175,-1.19287 0.950567,-14.7066 0.950567,-14.7066c0,0 1.21598,-1.21971 1.75799,0.412285c-0.0633711,1.9071 -0.513679,14.2786 -0.513679,14.2786c0,0 1.31812,1.54327 1.98911,0.313874c0.202042,-1.22865 1.42995,-14.4218 1.42995,-14.4218c0,0 1.6484,-2.08827 1.88399,0.158055c-0.0596434,2.5013 -0.430178,14.0878 -0.430178,14.0878c0,0 1.06911,1.5731 1.95258,0.313128c0.0790275,-1.03332 1.01096,-14.3644 1.01096,-14.3644c0,0 1.58055,-1.01319 1.87057,0.304181c0.175203,1.46499 -0.654587,14.1959 -0.654587,14.1959c0,0 0.948331,1.71177 1.26295,0.445089c0.0939384,-1.15634 0.808168,-14.9683 0.808168,-14.9683c0,0 2.31938,-2.25452 2.57063,1.95929c-0.219935,4.35695 -1.52538,21.6357 -1.52538,21.6357c0,0 -0.0559157,3.03212 -4.01922,3.40862c-3.56668,-0.291507 -174.825,-10.3183 -195.747,-11.5954c-1.36285,-0.0835008 -1.96525,0.354878 -1.24431,-2.63699" style="fill:#030404;fill-rule:nonzero;"/></g></svg>